<svg id="Layer_1" data-name="Layer 1" xmlns="http://www.w3.org/2000/svg" viewBox="0 0 179.6 119.48">
  <title>ManoLogo</title>
  <path d="M176.7,58.7v-3H144.51a58.34,58.34,0,0,0-2.63-16.64,50.71,50.71,0,0,0-8.28-15.89A51.75,51.75,0,0,0,120.11,11a57.77,57.77,0,0,0-18.26-7.32A56.29,56.29,0,0,0,79.06,3,51.39,51.39,0,0,0,44.38,26.15a65.08,65.08,0,0,0-8.93,21.6,70.4,70.4,0,0,0-1.31,8H1.59v3h32.3a61.57,61.57,0,0,0,.4,11.93,54.26,54.26,0,0,0,6.81,20.3,51.63,51.63,0,0,0,14.29,15.73A56.45,56.45,0,0,0,76.62,116q18,4,33-2.07a52.13,52.13,0,0,0,24.15-20.17l-1.42-1.27a29.29,29.29,0,0,1-7.59,7.21,32.69,32.69,0,0,1-9.28,4.17A33.2,33.2,0,0,1,105.26,105,30.59,30.59,0,0,1,95,102.66a28.2,28.2,0,0,1-10.66-7,36.34,36.34,0,0,1-7-10.58,51.3,51.3,0,0,1-3.7-13.07,73.19,73.19,0,0,1-.77-13.36Zm-101.17-21a84.85,84.85,0,0,1,5.83-16.23,42.42,42.42,0,0,1,8-11.66q4.5-4.49,9.31-4.74l.94,0a6.27,6.27,0,0,0,.92.11,6.43,6.43,0,0,1,.93.11A11.51,11.51,0,0,1,109.66,12a37.06,37.06,0,0,1,3.18,12.85,83.13,83.13,0,0,1-.32,15.76c-.6,5.42-1.3,10.44-2.09,15.09H72.84A89.35,89.35,0,0,1,75.53,37.71Z" style="fill: #fdfdfe"/>
</svg>
